<svg t="1767934523175" class="icon" viewBox="0 0 1024 1024" version="1.1" xmlns="http://www.w3.org/2000/svg" p-id="2122" width="200" height="200">
  <path d="M0 512a512 512 0 1 0 1024 0A512 512 0 1 0 0 512z" fill="#E0EAFF" p-id="2123"></path>
  <path d="M314.422 314.422l510.167 510.167" fill="#21D486" p-id="2124"></path>
  <path d="M824.59 835.368a10.779 10.779 0 0 1-7.621-3.158L306.8 322.043a10.779 10.779 0 0 1 15.242-15.242L832.21 816.97a10.779 10.779 0 0 1-7.62 18.4z" fill="#383C50" p-id="2125"></path>
  <path d="M199.411 314.422a115.011 115.011 0 1 0 230.022 0 115.011 115.011 0 1 0-230.022 0z" fill="#21D486" p-id="2126"></path>
  <path d="M314.422 440.212a124.906 124.906 0 0 1-88.937-36.842 125.78 125.78 0 1 1 88.937 36.842z m0-230.023a104.222 104.222 0 0 0-73.696 177.929 104.222 104.222 0 1 0 73.696-177.929z" fill="#383C50" p-id="2127"></path>
  <path d="M362.055 477.065a115.011 115.011 0 1 0 230.022 0 115.011 115.011 0 1 0-230.023 0z" fill="#FFB22F" p-id="2128"></path>
  <path d="M477.065 602.845a125.78 125.78 0 1 1 88.938-36.842 124.95 124.95 0 0 1-88.938 36.842z m0-230.001a104.222 104.222 0 1 0 73.696 30.526 103.478 103.478 0 0 0-73.696-30.526z" fill="#383C50" p-id="2129"></path>
  <path d="M524.708 639.709a115.011 115.011 0 1 0 230.023 0 115.011 115.011 0 1 0-230.023 0z" fill="#00ABFF" p-id="2130"></path>
  <path d="M639.709 765.424a125.402 125.402 0 0 1-88.948-36.778 125.952 125.952 0 1 1 88.948 36.778z m-73.706-52.02a104.232 104.232 0 1 0 0-147.412 104.362 104.362 0 0 0 0 147.413z" fill="#383C50" p-id="2131"></path>
</svg>
